<svg xmlns="http://www.w3.org/2000/svg" xmlns:xlink="http://www.w3.org/1999/xlink" width="500" zoomAndPan="magnify" viewBox="0 0 375 374.999991" height="500" preserveAspectRatio="xMidYMid meet" version="1.0"><defs><g/><clipPath id="f6714f0f85"><path d="M 227 131.113281 L 285.5 131.113281 L 285.5 203.863281 L 227 203.863281 Z M 227 131.113281 " clip-rule="nonzero"/></clipPath></defs><g fill="#171539" fill-opacity="1"><g transform="translate(39.765097, 244.988471)"><g><path d="M 307.8125 -71.269531 C 304.726562 -73.796875 299.957031 -73.234375 297.429688 -70.148438 C 296.871094 -69.308594 234.296875 7.015625 176.773438 -26.375 C 169.199219 -31.707031 163.304688 -39.003906 160.21875 -47.421875 C 154.886719 -58.082031 148.433594 -70.992188 130.476562 -68.183594 C 121.21875 -66.78125 106.90625 -54.996094 94.839844 -41.527344 C 94.28125 -40.6875 93.15625 -40.40625 92.316406 -40.6875 C 91.472656 -40.96875 90.632812 -41.527344 90.632812 -42.652344 C 88.386719 -55.277344 79.96875 -65.941406 68.183594 -70.992188 C 58.644531 -73.515625 43.210938 -76.320312 10.941406 -44.335938 C 9.257812 -42.929688 7.015625 -43.492188 7.296875 -45.738281 C 7.296875 -46.859375 12.90625 -69.585938 12.90625 -69.585938 C 13.75 -73.515625 11.222656 -77.445312 7.296875 -78.566406 C 3.367188 -79.410156 -0.5625 -76.882812 -1.683594 -72.953125 L -15.152344 -13.75 C -15.992188 -10.382812 -14.308594 -7.015625 -11.222656 -5.332031 C -7.855469 -3.929688 -4.207031 -4.769531 -2.246094 -7.574219 C 35.355469 -54.714844 53.875 -59.207031 61.449219 -58.082031 C 69.027344 -56.679688 79.128906 -41.527344 78.003906 -17.117188 C 78.003906 -13.75 79.96875 -10.664062 83.335938 -9.820312 C 86.703125 -8.699219 90.070312 -10.101562 91.753906 -12.90625 C 103.257812 -32.550781 125.707031 -52.472656 132.722656 -53.59375 C 139.457031 -54.714844 141.421875 -52.191406 147.03125 -40.96875 C 151.242188 -29.742188 159.097656 -20.203125 169.199219 -13.75 C 180.984375 -6.734375 194.453125 -2.804688 208.203125 -2.804688 C 261.796875 -2.804688 306.691406 -57.800781 308.933594 -60.890625 C 311.460938 -63.976562 310.898438 -68.746094 307.8125 -71.269531 Z M 307.8125 -71.269531 "/></g></g></g><g clip-path="url(#f6714f0f85)"><path fill="#c9974e" d="M 254.339844 203.710938 L 253.917969 203.710938 C 253.917969 178.578125 249.84375 176.753906 226.945312 176.753906 L 226.945312 176.332031 C 249.84375 176.332031 253.917969 174.507812 253.917969 149.378906 L 254.339844 149.378906 C 254.339844 174.507812 258.414062 176.332031 281.308594 176.332031 L 281.308594 176.753906 C 258.414062 176.753906 254.339844 178.578125 254.339844 203.710938 Z M 279.429688 169.503906 L 279.335938 169.503906 C 279.335938 163.878906 278.421875 163.464844 273.296875 163.464844 L 273.296875 163.375 C 278.421875 163.375 279.335938 162.960938 279.335938 157.335938 L 279.429688 157.335938 C 279.429688 162.960938 280.339844 163.375 285.464844 163.375 L 285.464844 163.464844 C 280.339844 163.464844 279.429688 163.878906 279.429688 169.503906 Z M 267.75 155.523438 L 267.566406 155.523438 C 267.566406 144.355469 265.75 143.546875 255.578125 143.546875 L 255.578125 143.355469 C 265.75 143.355469 267.566406 142.546875 267.566406 131.382812 L 267.75 131.382812 C 267.75 142.546875 269.5625 143.355469 279.734375 143.355469 L 279.734375 143.546875 C 269.5625 143.546875 267.75 144.355469 267.75 155.523438 " fill-opacity="1" fill-rule="evenodd"/></g></svg>